<svg xmlns="http://www.w3.org/2000/svg" viewBox="0 0 289.38 51.29"><defs><style>.cls-1{fill:#007190;}.cls-2{fill:#a8a292;}.cls-3{fill:#ccc7bd;}</style></defs><title>logo cores</title><g id="Layer_2" data-name="Layer 2"><g id="About_Background_ABOUT_TALENT_Footer_Image" data-name="About Background + ABOUT + TALENT + Footer Image"><rect class="cls-1" x="141.42" y="41.9" width="1.04" height="9.23"/><polygon class="cls-1" points="146.84 41.91 147.81 41.91 153.63 49.3 153.63 41.91 154.64 41.91 154.64 51.14 153.81 51.14 147.85 43.56 147.85 51.14 146.84 51.14 146.84 41.91"/><polygon class="cls-1" points="156.96 41.91 158.12 41.91 161.4 49.85 164.7 41.91 165.82 41.91 161.85 51.2 160.93 51.2 156.96 41.91"/><polygon class="cls-1" points="168.14 41.91 174.81 41.91 174.81 42.85 169.18 42.85 169.18 46.01 174.22 46.01 174.22 46.96 169.18 46.96 169.18 50.18 174.88 50.18 174.88 51.14 168.14 51.14 168.14 41.91"/><path class="cls-1" d="M177.23,49.79l.65-.77A4.38,4.38,0,0,0,181,50.33c1.24,0,2.06-.66,2.06-1.57v0c0-.85-.46-1.34-2.4-1.75-2.12-.46-3.1-1.15-3.1-2.66v0c0-1.45,1.28-2.52,3-2.52a4.79,4.79,0,0,1,3.25,1.14l-.61.8a4,4,0,0,0-2.66-1c-1.2,0-2,.66-2,1.49v0c0,.87.48,1.36,2.51,1.8s3,1.2,3,2.61v0c0,1.59-1.31,2.62-3.15,2.62a5.41,5.41,0,0,1-3.77-1.48"/><polygon class="cls-1" points="188.66 42.87 185.56 42.87 185.56 41.91 192.81 41.91 192.81 42.87 189.71 42.87 189.71 51.14 188.66 51.14 188.66 42.87"/><polygon class="cls-1" points="195.22 41.91 196.27 41.91 199.63 46.94 203 41.91 204.06 41.91 204.06 51.14 203.01 51.14 203.01 43.66 199.65 48.6 199.59 48.6 196.23 43.67 196.23 51.14 195.22 51.14 195.22 41.91"/><polygon class="cls-1" points="208.45 41.91 215.12 41.91 215.12 42.85 209.49 42.85 209.49 46.01 214.53 46.01 214.53 46.96 209.49 46.96 209.49 50.18 215.19 50.18 215.19 51.14 208.45 51.14 208.45 41.91"/><polygon class="cls-1" points="217.99 41.91 218.97 41.91 224.78 49.3 224.78 41.91 225.8 41.91 225.8 51.14 224.97 51.14 219.01 43.56 219.01 51.14 217.99 51.14 217.99 41.91"/><polygon class="cls-1" points="231.19 42.87 228.09 42.87 228.09 41.91 235.34 41.91 235.34 42.87 232.24 42.87 232.24 51.14 231.19 51.14 231.19 42.87"/><path class="cls-2" d="M237.06,46.54v0a4.63,4.63,0,0,1,4.63-4.77A4.88,4.88,0,0,1,245.13,43l-.67.79a4,4,0,0,0-2.81-1,3.61,3.61,0,0,0-3.51,3.78v0a3.57,3.57,0,0,0,3.66,3.84,4.33,4.33,0,0,0,2.66-.93V47.14h-2.81v-.93h3.81v3.67a5.58,5.58,0,0,1-3.71,1.41,4.53,4.53,0,0,1-4.69-4.75"/><path class="cls-2" d="M249,41.9h4a3.65,3.65,0,0,1,2.63.93,2.52,2.52,0,0,1,.71,1.82v0a2.69,2.69,0,0,1-2.5,2.69l2.83,3.78h-1.28l-2.68-3.59h-2.63v3.59h-1Zm3.87,4.71c1.39,0,2.38-.71,2.38-1.9v0c0-1.14-.87-1.82-2.36-1.82h-2.85v3.74Z"/><path class="cls-2" d="M258.83,46.54v0a4.68,4.68,0,0,1,4.73-4.77,4.63,4.63,0,0,1,4.69,4.74v0a4.71,4.71,0,1,1-9.42,0m8.34,0v0a3.67,3.67,0,0,0-3.64-3.81,3.62,3.62,0,0,0-3.61,3.78v0a3.67,3.67,0,0,0,3.64,3.81,3.63,3.63,0,0,0,3.61-3.79"/><path class="cls-2" d="M271.18,47.27V41.9h1v5.31c0,2,1.06,3.11,2.82,3.11s2.79-1,2.79-3V41.9h1v5.29c0,2.69-1.55,4.09-3.86,4.09s-3.83-1.4-3.83-4"/><path class="cls-2" d="M282.47,41.9h3.45c2.09,0,3.46,1.11,3.46,2.93v0c0,2-1.66,3-3.63,3h-2.24v3.26h-1Zm3.32,5c1.53,0,2.54-.82,2.54-2v0c0-1.32-1-2-2.49-2h-2.33v4.06Z"/><path class="cls-2" d="M0,16.71v-.09C0,7.53,6.79,0,16.25,0A16.75,16.75,0,0,1,28.78,5.09L26.31,7.76c-2.71-2.57-5.74-4.41-10.1-4.41C9.09,3.35,3.76,9.13,3.76,16.53v.09c0,7.44,5.38,13.27,12.45,13.27,4.4,0,7.29-1.7,10.37-4.64L29,27.59c-3.35,3.4-7,5.65-12.85,5.65C6.84,33.24,0,25.94,0,16.71M76,.55h12c7.26,0,12,3.86,12,10.19v.09c0,6.93-5.78,10.52-12.62,10.52H79.67V32.69H76ZM87.61,18c5.33,0,8.82-2.84,8.82-7.07v-.09c0-4.59-3.45-7-8.63-7H79.67V18ZM107.46.55h13.82c3.94,0,7.11,1.19,9.13,3.21a8.92,8.92,0,0,1,2.48,6.34v.09c0,5.33-3.67,8.45-8.72,9.37L134,32.69h-4.45L120.27,20.2h-9.19V32.69h-3.62ZM121,16.94c4.82,0,8.27-2.48,8.27-6.61v-.09c0-3.95-3-6.34-8.22-6.34h-9.92v13ZM141.42.55h3.63V32.69h-3.63ZM153.5,16.71v-.09C153.5,7.53,160.29,0,169.75,0a16.75,16.75,0,0,1,12.53,5.09L179.8,7.76c-2.7-2.57-5.74-4.41-10.1-4.41-7.11,0-12.44,5.78-12.44,13.18v.09c0,7.44,5.37,13.27,12.44,13.27,4.41,0,7.3-1.7,10.38-4.64l2.39,2.34c-3.35,3.4-7,5.65-12.86,5.65-9.27,0-16.11-7.3-16.11-16.53m33.26,0v-.09C186.76,7.76,193.41,0,203.19,0s16.34,7.66,16.34,16.53v.09c0,8.86-6.65,16.62-16.43,16.62s-16.34-7.67-16.34-16.53m29,0v-.09c0-7.3-5.32-13.27-12.67-13.27s-12.58,5.87-12.58,13.18v.09c0,7.3,5.32,13.27,12.67,13.27S215.77,24,215.77,16.71M228,.55h13.83c3.94,0,7.11,1.19,9.13,3.21a8.92,8.92,0,0,1,2.48,6.34v.09c0,5.33-3.67,8.45-8.73,9.37l9.88,13.13h-4.46L240.81,20.2h-9.18V32.69H228Zm13.5,16.39c4.83,0,8.27-2.48,8.27-6.61v-.09c0-3.95-3-6.34-8.22-6.34h-9.92v13ZM262,.55h3.39L285.65,26.3V.55h3.54V32.69h-2.9L265.54,6.33V32.69H262Z"/><polygon class="cls-1" points="36.65 31.82 36.65 28.06 63.5 16.39 36.65 4.7 36.65 1.07 68.04 14.94 68.04 17.92 36.65 31.82"/><polygon class="cls-3" points="43.97 9.46 47.48 10.99 47.48 21.78 43.97 23.31 43.97 9.46"/></g></g></svg>