<svg xmlns="http://www.w3.org/2000/svg" viewBox="0 0 551.23 97.7"><defs><style>.cls-1{fill:#fff;}.cls-2{fill:#006383;}</style></defs><title>capricorn logo home</title><g id="Layer_2" data-name="Layer 2"><g id="Layer_1-2" data-name="Layer 1"><rect class="cls-1" x="269.38" y="79.82" width="1.99" height="17.58"/><polygon class="cls-1" points="279.7 79.82 281.56 79.82 292.64 93.92 292.64 79.82 294.57 79.82 294.57 97.41 292.99 97.41 281.64 82.98 281.64 97.41 279.7 97.41 279.7 79.82"/><polygon class="cls-1" points="298.98 79.82 301.2 79.82 307.45 94.97 313.73 79.82 315.86 79.82 308.3 97.53 306.54 97.53 298.98 79.82"/><polygon class="cls-1" points="320.29 79.82 333 79.82 333 81.63 322.27 81.63 322.27 87.64 331.86 87.64 331.86 89.45 322.27 89.45 322.27 95.59 333.12 95.59 333.12 97.41 320.29 97.41 320.29 79.82"/><path class="cls-1" d="M337.6,94.84l1.24-1.45a8.39,8.39,0,0,0,6,2.48c2.36,0,3.91-1.25,3.91-3v0c0-1.62-.88-2.55-4.57-3.33-4-.88-5.9-2.19-5.9-5.08v0c0-2.76,2.44-4.8,5.77-4.8a9.21,9.21,0,0,1,6.19,2.16l-1.16,1.54A7.69,7.69,0,0,0,344,81.35c-2.29,0-3.75,1.27-3.75,2.85v0c0,1.66.91,2.59,4.78,3.42s5.72,2.28,5.72,5v.05c0,3-2.51,5-6,5a10.28,10.28,0,0,1-7.19-2.82"/><polygon class="cls-1" points="359.37 81.66 353.46 81.66 353.46 79.82 367.28 79.82 367.28 81.66 361.37 81.66 361.37 97.41 359.37 97.41 359.37 81.66"/><polygon class="cls-1" points="371.87 79.82 373.88 79.82 380.28 89.42 386.69 79.82 388.7 79.82 388.7 97.41 386.71 97.41 386.71 83.17 380.31 92.58 380.2 92.58 373.8 83.19 373.8 97.41 371.87 97.41 371.87 79.82"/><polygon class="cls-1" points="397.07 79.82 409.77 79.82 409.77 81.63 399.05 81.63 399.05 87.64 408.65 87.64 408.65 89.45 399.05 89.45 399.05 95.59 409.9 95.59 409.9 97.41 397.07 97.41 397.07 79.82"/><polygon class="cls-1" points="415.25 79.82 417.11 79.82 428.18 93.92 428.18 79.82 430.12 79.82 430.12 97.41 428.54 97.41 417.18 82.98 417.18 97.41 415.25 97.41 415.25 79.82"/><polygon class="cls-1" points="440.38 81.66 434.48 81.66 434.48 79.82 448.29 79.82 448.29 81.66 442.38 81.66 442.38 97.41 440.38 97.41 440.38 81.66"/><path class="cls-1" d="M451.57,88.66v0a8.82,8.82,0,0,1,8.82-9.1A9.28,9.28,0,0,1,467,81.86l-1.29,1.5a7.47,7.47,0,0,0-5.34-2c-3.9,0-6.68,3.29-6.68,7.22v.05c0,4.19,2.68,7.31,6.95,7.31a8.31,8.31,0,0,0,5.07-1.76V89.8h-5.34V88h7.25v7a10.62,10.62,0,0,1-7.06,2.68c-5.52,0-8.94-4-8.94-9"/><path class="cls-1" d="M474.35,79.82h7.55a7,7,0,0,1,5,1.76,4.83,4.83,0,0,1,1.35,3.47v0c0,2.91-2,4.62-4.76,5.12l5.4,7.19h-2.44l-5.1-6.83h-5v6.83h-2Zm7.38,9c2.64,0,4.52-1.36,4.52-3.62v0c0-2.15-1.65-3.46-4.49-3.46h-5.43v7.13Z"/><path class="cls-1" d="M493.05,88.66v0a8.92,8.92,0,0,1,9-9.1,8.82,8.82,0,0,1,8.94,9v.05a9,9,0,1,1-17.93,0m15.88,0v0A7,7,0,0,0,502,81.35a6.91,6.91,0,0,0-6.88,7.22v.05A7,7,0,0,0,502,95.87a6.91,6.91,0,0,0,6.89-7.21"/><path class="cls-1" d="M516.56,90.05V79.82h2v10.1c0,3.79,2,5.93,5.37,5.93s5.3-2,5.3-5.8V79.82h2V89.9c0,5.12-2.94,7.79-7.34,7.79s-7.31-2.67-7.31-7.64"/><path class="cls-1" d="M538.06,79.82h6.58c4,0,6.59,2.11,6.59,5.58v0c0,3.79-3.17,5.75-6.91,5.75h-4.27v6.21h-2Zm6.34,9.57c2.91,0,4.83-1.56,4.83-3.86v-.06c0-2.5-1.89-3.81-4.73-3.81h-4.45v7.73Z"/><path class="cls-1" d="M0,31.83v-.17C0,14.34,12.94,0,31,0,42.07,0,48.71,3.94,54.83,9.7l-4.72,5.08C45,9.88,39.18,6.38,30.87,6.38c-13.56,0-23.7,11-23.7,25.1v.18c0,14.16,10.23,25.28,23.7,25.28,8.4,0,13.9-3.24,19.77-8.84l4.54,4.45C48.8,59,41.8,63.32,30.7,63.32,13,63.32,0,49.41,0,31.83M144.85,1.05h22.92c13.82,0,22.91,7.34,22.91,19.42v.16c0,13.21-11,20-24.05,20H151.76V62.27h-6.91Zm22,33.31c10.15,0,16.79-5.41,16.79-13.46v-.18c0-8.75-6.56-13.29-16.44-13.29H151.76V34.36Zm37.8-33.31H231c7.52,0,13.55,2.27,17.4,6.12a16.94,16.94,0,0,1,4.72,12.07v.17c0,10.14-7,16.1-16.62,17.84l18.81,25h-8.48L229.09,38.48H211.6V62.27h-6.91ZM230.4,32.27c9.18,0,15.74-4.72,15.74-12.6V19.5c0-7.53-5.76-12.07-15.65-12.07H211.6V32.27Zm39-31.22h6.91V62.27h-6.91Zm23,30.78v-.17c0-17.32,12.94-31.66,31-31.66,11.11,0,17.76,3.94,23.88,9.7l-4.73,5.08c-5.15-4.9-10.93-8.4-19.23-8.4-13.56,0-23.7,11-23.7,25.1v.18c0,14.16,10.23,25.28,23.7,25.28,8.39,0,13.9-3.24,19.76-8.84l4.55,4.45C341.19,59,334.2,63.32,323.09,63.32c-17.67,0-30.7-13.91-30.7-31.49m63.36,0v-.17C355.75,14.78,368.43,0,387.05,0s31.14,14.6,31.14,31.48v.18c0,16.87-12.69,31.66-31.31,31.66s-31.13-14.61-31.13-31.49m55.27,0v-.17c0-13.91-10.14-25.28-24.14-25.28s-24,11.19-24,25.1v.18c0,13.91,10.14,25.28,24.13,25.28s24-11.2,24-25.11m23.3-30.78h26.33c7.51,0,13.55,2.27,17.4,6.12a16.94,16.94,0,0,1,4.72,12.07v.17c0,10.14-7,16.1-16.62,17.84l18.81,25h-8.48L458.72,38.48H441.23V62.27h-6.91ZM460,32.27c9.19,0,15.75-4.72,15.75-12.6V19.5c0-7.53-5.77-12.07-15.66-12.07H441.23V32.27ZM499.09,1.05h6.47l38.57,49.06V1.05h6.74V62.27h-5.52L505.82,12.06V62.27h-6.73Z"/><polygon class="cls-2" points="69.81 60.61 69.81 53.46 120.96 31.21 69.81 8.96 69.81 2.05 129.62 28.45 129.62 34.13 69.81 60.61"/><polygon class="cls-1" points="83.75 18.02 90.45 20.93 90.45 41.49 83.75 44.4 83.75 18.02"/></g></g></svg>