<svg xmlns="http://www.w3.org/2000/svg" viewBox="0 0 13.43 13.44"><defs><style>.cls-1{fill:#7c828c;}</style></defs><title>Layer 2 (2)</title><g id="Layer_2" data-name="Layer 2"><g id="About_Background_ABOUT_TALENT_Footer_Image" data-name="About Background + ABOUT + TALENT + Footer Image"><g id="Layer_2-2" data-name="Layer 2"><g id="_linkedin_seleccionado_rollover" data-name=" linkedin seleccionado rollover"><path class="cls-1" d="M13.43,13.43h-3V8.71C10.47,7.48,10,6.63,9,6.63A1.54,1.54,0,0,0,7.56,7.75a2.38,2.38,0,0,0-.06.75v4.93H4.56s0-8.36,0-9.12H7.5V5.74a2.67,2.67,0,0,1,2.61-1.52c1.86,0,3.32,1.31,3.32,4.14ZM1.58,3.17h0A1.52,1.52,0,0,1,0,1.7V1.59A1.53,1.53,0,0,1,1.47,0H1.6A1.51,1.51,0,0,1,3.18,1.45a.28.28,0,0,1,0,.13A1.52,1.52,0,0,1,1.72,3.17H1.58M.34,4.31H3v9.13H.34Z"/></g></g></g></g></svg>