<?xml version="1.0" standalone="no"?>
<!DOCTYPE svg PUBLIC "-//W3C//DTD SVG 20010904//EN"
 "http://www.w3.org/TR/2001/REC-SVG-20010904/DTD/svg10.dtd">
<svg version="1.0" xmlns="http://www.w3.org/2000/svg"
 width="160.000000pt" height="160.000000pt" viewBox="0 0 160.000000 160.000000"
 preserveAspectRatio="xMidYMid meet">
<metadata>
Created by potrace 1.11, written by Peter Selinger 2001-2013
</metadata>
<g transform="translate(0.000000,160.000000) scale(0.100000,-0.100000)"
fill="#000000" stroke="none">
<path d="M149 1419 c-3 -73 0 -122 8 -129 7 -8 214 -100 468 -210 139 -60 430
-187 470 -205 17 -8 61 -28 100 -44 l69 -29 -34 -15 c-125 -53 -426 -184 -479
-209 -36 -16 -123 -54 -195 -85 -72 -30 -158 -68 -191 -83 -33 -14 -95 -42
-137 -60 l-78 -34 0 -78 c0 -92 -8 -89 115 -33 38 18 104 47 145 65 41 18 104
46 140 62 36 17 202 91 370 165 309 137 326 144 461 206 l77 35 -2 63 -1 64
-555 247 c-473 210 -676 300 -737 325 -8 3 -13 -4 -14 -18z"/>
<path d="M451 800 l0 -289 42 16 c23 10 57 25 76 34 l35 16 0 226 1 226 -40
17 c-22 9 -54 23 -72 30 -17 8 -34 14 -37 14 -3 0 -6 -130 -5 -290z"/>
</g>
</svg>
