<svg xmlns="http://www.w3.org/2000/svg" viewBox="0 0 14.55 12.47"><defs><style>.cls-1{fill:#7c828c;}</style></defs><title>Layer 2</title><g id="Layer_2" data-name="Layer 2"><g id="About_Background_ABOUT_TALENT_Footer_Image" data-name="About Background + ABOUT + TALENT + Footer Image"><g id="Layer_2-2" data-name="Layer 2"><g id="_twitter_seleccionado_rollover" data-name=" twitter seleccionado rollover"><path class="cls-1" d="M12.83,2A3.09,3.09,0,0,0,14.14.23,5.65,5.65,0,0,1,12.25,1a2.89,2.89,0,0,0-2.18-1,3.06,3.06,0,0,0-3,3.15,3.35,3.35,0,0,0,.07.71A8.3,8.3,0,0,1,1,.57a3.38,3.38,0,0,0-.4,1.59A3.21,3.21,0,0,0,1.94,4.78,2.9,2.9,0,0,1,.59,4.39v0A3.1,3.1,0,0,0,3,7.51a2.65,2.65,0,0,1-.79.11,3.53,3.53,0,0,1-.56,0A3,3,0,0,0,4.42,9.75,5.83,5.83,0,0,1,.71,11.1a5.65,5.65,0,0,1-.71,0,8.12,8.12,0,0,0,4.57,1.42c5.49,0,8.49-4.8,8.49-9v-.4a6.25,6.25,0,0,0,1.49-1.63A5.68,5.68,0,0,1,12.84,2"/></g></g></g></g></svg>